<svg viewBox="0 0 128 128" xml:space="preserve" xmlns="http://www.w3.org/2000/svg" enable-background="new 0 0 128 128">
    <circle cx="64" cy="64.3" r="64" fill="#f0f3bd" class="fill-a7fcd0"></circle>
    <path d="M38 103.5c-6.2-4.9-10.3-26.6-10.3-26.6s22.1-.7 28.3 4.2c6.2 5 7.2 14 2.2 20.2-5 6.1-14 7.1-20.2 2.2z" fill="#75b600" class="fill-75b600"></path>
    <path d="M53.6 86.3C47.3 81.3 25 82 25 82s4.2 21.8 10.5 26.8 15.4 4 20.4-2.3c5-6.1 4-15.2-2.3-20.2z" fill="#75b600" class="fill-75b600"></path>
    <path d="M58.1 95.5c-4.9 6.2-14 7.2-20.2 2.2-3.3-2.7-6.8-9.8-9.2-15.9 1.6 6.7 4.9 18.2 9.2 21.7 6.2 4.9 15.2 3.9 20.2-2.2 2.8-3.5 3.7-7.8 2.8-11.9-.4 2.1-1.3 4.2-2.8 6.1z" fill="#5c8e0d" class="fill-5c8e0d"></path>
    <path d="M46.9 108c-3.4 0-6.7-1.2-9.4-3.4-6.3-5.1-10.3-26.5-10.5-27.4-.1-.3 0-.6.2-.8.2-.2.4-.4.7-.4h2.9c7.5 0 20.7.6 25.5 4.5 6.5 5.3 7.5 15.1 2.4 21.7-2.9 3.7-7.2 5.8-11.8 5.8zM29.2 78c.9 4.5 4.6 21 9.6 25 2.3 1.9 5.2 2.9 8.2 2.9 4 0 7.7-1.8 10.2-5 4.5-5.8 3.6-14.2-2.1-18.9-3.1-2.5-12.1-4-24.2-4h-1.7z" fill="#46600e" class="fill-46600e"></path>
    <path d="M70 103c-15.4 0-26.1-11.7-26.6-12.3-.4-.4-.3-1 .1-1.4.4-.4 1-.3 1.4.1.1.1 10.5 11.7 25 11.8 1.6 0 3.2-.1 4.9-.4.5-.1 1.1.3 1.2.8.1.5-.3 1.1-.8 1.2-1.8.2-3.5.2-5.2.2z" fill="#46600e" class="fill-46600e"></path>
    <path d="M41.5 23.9c7.1-3.4 28.5 2.2 28.5 2.2s-8.9 20.2-16 23.6c-7.1 3.4-15.7.4-19.1-6.7-3.5-7.1-.5-15.6 6.6-19.1z" fill="#75b600" class="fill-75b600"></path>
    <path d="M41.2 28.3C34 31.8 31 40.5 34.4 47.7 37.9 55 46.6 58 53.8 54.6c7.2-3.5 16.2-24 16.2-24s-21.6-5.8-28.8-2.3z" fill="#75b600" class="fill-75b600"></path>
    <path d="M53.9 44.3c-7.1 3.4-15.7.4-19.1-6.7-.5-1.1-.9-2.3-1.1-3.5-.6 2.9-.3 6.1 1.1 9 3.4 7.1 12 10.1 19.1 6.7 5.5-2.6 12-15.2 14.8-20.8-4.6 6-10.7 13.4-14.8 15.3z" fill="#5c8e0d" class="fill-5c8e0d"></path>
    <path d="M95.8 58c-8-.2-14.6 6.1-14.8 14-.2 7.9 13.9 25 13.9 25s14.9-16.4 15.1-24.3c.2-8-6.2-14.5-14.2-14.7z" fill="#75b600" class="fill-75b600"></path>
    <path d="M47.5 52c-5.9 0-11.4-3.4-14-8.6-3.7-7.5-.4-16.6 7.3-20.2 1.7-.8 4.1-1.2 7.3-1.2 9.2 0 21.6 3.2 22.1 3.3.3.1.5.3.7.5.1.3.1.6 0 .8-.4.8-9.2 20.3-16.7 23.8-2.1 1.1-4.4 1.6-6.7 1.6zm.6-28c-2.9 0-5.1.3-6.5 1-6.7 3.1-9.5 11-6.3 17.6 2.2 4.5 7 7.5 12.2 7.5 2 0 4-.4 5.8-1.3C59.2 46 66.6 31.2 68.5 27c-3.3-.8-13-3-20.4-3z" fill="#46600e" class="fill-46600e"></path>
    <path d="M27 59.1h-.3c-.5-.1-.8-.7-.7-1.2 5-17.8 23.8-23.2 24.6-23.4.5-.1 1.1.2 1.2.7.1.5-.2 1.1-.7 1.2-.2.1-18.5 5.4-23.2 22 0 .4-.4.7-.9.7z" fill="#46600e" class="fill-46600e"></path>
    <path d="M111.4 66.8c-.2 7.9-14.9 24.4-14.9 24.4s-14-17.1-13.8-25c.2-7.9 6.7-14.2 14.7-14 7.9.1 14.1 6.7 14 14.6z" fill="#75b600" class="fill-75b600"></path>
    <path d="M96.5 86S85.1 72 83 63.5c-.2.9-.3 1.7-.3 2.7-.2 7.9 13.8 25 13.8 25s14.7-16.5 14.9-24.4c0-1.1-.1-2.2-.3-3.2C109 72 96.5 86 96.5 86z" fill="#5c8e0d" class="fill-5c8e0d"></path>
    <path d="M96.9 92c-.3 0-.6-.1-.8-.4-.5-.7-14.3-17.4-14.1-25.6.2-8.3 7.1-15 15.5-15h.4c8.5.2 15.3 7.2 15.1 15.7-.2 8.2-14.7 24.3-15.3 25-.2.2-.5.3-.8.3zm.6-39c-7.3 0-13.3 5.8-13.5 13-.1 6.5 10.1 19.8 13 23.4 3-3.5 13.9-16.4 14-22.8.2-7.4-5.7-13.5-13.2-13.6h-.3z" fill="#46600e" class="fill-46600e"></path>
    <path d="M96.9 71h-.2c-.5-.1-.9-.6-.8-1.2 0-.2 3.6-18.9-9.1-30.7-.4-.4-.4-1-.1-1.4.4-.4 1-.4 1.4-.1 13.6 12.5 9.9 31.7 9.7 32.5 0 .6-.4.9-.9.9z" fill="#46600e" class="fill-46600e"></path>
    <path d="M91 109c-2.2 0-4-1.8-4-4s1.8-4 4-4 4 1.8 4 4-1.8 4-4 4zm0-6.1c-1.2 0-2.1 1-2.1 2.1 0 1.2 1 2.1 2.1 2.1 1.2 0 2.1-1 2.1-2.1 0-1.2-.9-2.1-2.1-2.1zM54.9 68c-2.2 0-3.9-1.8-3.9-4s1.8-4 3.9-4c2.2 0 3.9 1.8 3.9 4s-1.7 4-3.9 4zm0-6.1c-1.2 0-2.1 1-2.1 2.1 0 1.2.9 2.1 2.1 2.1 1.2 0 2.1-1 2.1-2.1 0-1.2-.9-2.1-2.1-2.1zM13 74c-2.2 0-4-1.8-4-4s1.8-4 4-4 4 1.8 4 4-1.8 4-4 4zm0-6.1c-1.2 0-2.1 1-2.1 2.1 0 1.2 1 2.1 2.1 2.1 1.2 0 2.1-1 2.1-2.1 0-1.2-.9-2.1-2.1-2.1zM85.1 19.3c0-.4-.4-.8-1-.9l-1.9-.3c-.5-.1-1.1-.6-1.1-1.1l-.3-1.9c-.1-.5-.5-1-.9-1s-.8.4-.9 1l-.1 1.9c-.1.5-.6 1.1-1.1 1.1l-1.9.3c-.5.1-1 .5-1 .9s.4.8 1 .9l1.9.3c.5.1 1.1.6 1.1 1.1l.3 1.9c.1.5.5 1 .9 1s.8-.4.8-1l.3-2.1c.1-.5.6-1 1.1-1.1l1.8-.1c.6-.2 1-.5 1-.9zM23.7 42.2c0-.4-.4-.8-1-.9l-1.8-.3c-.5-.1-1.1-.6-1.1-1.1l-.4-1.9c-.1-.5-.5-1-.9-1s-.8.4-.9 1l-.3 1.9c-.1.5-.6 1.1-1.1 1.1l-1.9.3c-.5.1-1 .5-1 .9s.4.8 1 .9l1.9.3c.5.1 1.1.6 1.1 1.1l.3 1.9c.1.5.5 1 .9 1s.8-.4.8-1l.3-2.1c.1-.5.6-1 1.1-1.1l1.8-.1c.8-.2 1.2-.6 1.2-.9zM76.5 84.7c0-.4-.4-.8-1-.9l-1.9-.3c-.5-.1-1.1-.6-1.1-1.1l-.3-1.9c-.1-.5-.5-1-.9-1s-.8.4-.9 1l-.3 1.9c-.1.5-.6 1.1-1.1 1.1l-1.9.3c-.5.1-1 .5-1 .9s.4.8 1 .9l1.9.3c.5.1 1.1.6 1.1 1.1l.3 1.9c.1.5.5 1 .9 1s.8-.4.8-1l.3-2.1c.1-.5.6-1 1.1-1.1l1.8-.1c.8-.2 1.2-.5 1.2-.9zM112.5 39c0-.4-.4-.8-1-.9l-1.9-.3c-.5-.1-1.1-.6-1.1-1.1l-.3-1.9c-.1-.5-.5-1-.9-1s-.8.4-.9 1l-.3 1.9c-.1.5-.6 1.1-1.1 1.1l-1.9.3c-.5.1-1 .5-1 .9s.4.8 1 .9l1.9.3c.5.1 1.1.6 1.1 1.1l.3 1.9c.1.5.5 1 .9 1s.8-.4.8-1l.3-2.1c.1-.5.6-1 1.1-1.1l1.8-.1c.8-.1 1.2-.5 1.2-.9zM64.6 115.8c0-.4-.4-.8-1-.9l-1.9-.3c-.5-.1-1.1-.6-1.1-1.1l-.3-1.9c-.1-.5-.5-1-.9-1s-.8.4-.9 1l-.3 1.9c-.1.5-.6 1.1-1.1 1.1l-1.9.3c-.5.1-1 .5-1 .9s.4.8 1 .9l1.9.3c.5.1 1.1.6 1.1 1.1l.3 1.9c.1.5.5 1 .9 1s.8-.4.8-1l.3-2.1c.1-.5.6-1 1.1-1.1l1.8-.1c.8-.2 1.2-.5 1.2-.9z" fill="#ffffff" class="fill-ffffff"></path>
    <path d="M39.2 32.1c-.2 0-.4 0-.5-.1-.5-.3-.6-.9-.3-1.4.1-.2 3-4.8 13.3-4.8 3 0 11.9 1.5 12.3 1.6.5.1.9.6.8 1.2-.1.5-.6.9-1.2.8-.1 0-9.1-1.5-11.9-1.5-9 0-11.6 3.8-11.6 3.8-.2.2-.5.4-.9.4zM56.8 91.6c-.4 0-.8-.2-.9-.6 0-.1-2.2-5.4-7.2-7.3-5.3-2.1-15.3-2-15.4-2-.6 0-1-.4-1-1s.4-1 1-1c.4 0 10.5 0 16.1 2.2 5.8 2.3 8.2 8.2 8.3 8.5.2.5-.1 1.1-.6 1.3-.1-.1-.2-.1-.3-.1zM107 65.4c-.5 0-1-.4-1-.9-.2-2.8-3.9-5.6-5.3-6.5-.5-.3-.6-.9-.3-1.4.3-.5.9-.6 1.4-.3.2.1 6 3.6 6.2 8.1 0 .4-.4.9-1 1zM87 66.1h-.3c-.5-.1-.8-.7-.7-1.2.1-.2 1.4-4.9 5.7-7.6.5-.3 1.1-.1 1.4.3.3.5.1 1.1-.3 1.4-3.6 2.2-4.8 6.4-4.8 6.4-.2.4-.6.7-1 .7z" opacity=".5" fill="#ffffff" class="fill-ffffff"></path>
</svg>